<?xml version="1.0" encoding="UTF-8"?>
<svg id="uuid-dc224756-c099-453a-a4bd-8f93a53db34a" data-name="Layer 1" xmlns="http://www.w3.org/2000/svg" viewBox="0 0 293.46 270.82">
  <defs>
    <style>
      .uuid-cecb5542-6234-42d1-864d-b7e634db330c {
        fill: #f8fbf6;
      }

      .uuid-e9e2e2d8-dac8-41ef-be1c-c876f740e0e6 {
        fill: #f7921e;
      }

      .uuid-7fcadd32-87dd-474e-8732-b7ec1f8b8176 {
        fill: #f37121;
      }

      .uuid-e6982941-a79c-4897-8415-6e9b383f9a48 {
        fill: #969696;
      }

      .uuid-ae6f4e65-350a-45d3-a4c5-08a1ac472a61 {
        fill: #231f20;
      }

      .uuid-29cda21a-a1aa-478c-8c38-d112f5a62814 {
        fill: #232323;
      }
    </style>
  </defs>
  <rect class="uuid-29cda21a-a1aa-478c-8c38-d112f5a62814" x="37.68" y="52.28" width="233.6" height="169.87"/>
  <path class="uuid-7fcadd32-87dd-474e-8732-b7ec1f8b8176" d="M292.43,153.55c-7.77-42.1-15.54-84.2-23.31-126.31-117.03,18.08-141.8,24.87-141.48,27.65,.25,2.16,17.31,1.28,52.49,2.88,29.99,1.36,54.55,3.68,71.14,5.5,3.55,12.09,6.81,25.12,9.53,39.02,7.47,38.22,8.87,72.85,7.66,101.88,2.69-.04,5.39-.08,8.08-.12"/>
  <path class="uuid-e9e2e2d8-dac8-41ef-be1c-c876f740e0e6" d="M291.56,138.68c-.87-47.13-6.95-88.19-14.17-121.47-37.25-6.67-85.77-11.8-142.22-8.6C84.07,11.5,40.42,20.42,6.26,29.9c-.94,29.38,.22,64.93,6.43,104.73,7.2,46.12,19.16,85.03,30.87,115.42,37.8,4.46,82.53,7,132.6,4.53,40.52-2,77.04-6.91,108.81-12.93,4.32-29.32,7.31-64.02,6.59-102.97Zm-25.46,73.96c-32.49,3.58-67.44,6.27-104.6,7.55-39.08,1.35-75.85,.97-109.99-.54-5.49-24.26-10.26-52.1-12.94-83.03-2.11-24.35-2.62-46.94-2.16-67.39,39.62-6.67,82.88-12.21,129.4-15.64,34.46-2.54,67.24-3.67,98.13-3.77,6.46,39.21,9.66,84.49,5.39,134.25-.84,9.8-1.93,19.33-3.23,28.58Z"/>
  <g>
    <path d="M293.36,141.14c-.64-33.16-3.87-66.26-9.66-98.92-1.4-7.89-2.95-15.75-4.65-23.59-.26-1.21-1.47-2.49-2.72-2.72-33.58-5.99-67.63-9.28-101.74-9.68-39.55-.45-79.13,2.96-118.03,10.08-17.98,3.29-35.81,7.4-53.42,12.28-1.69,.47-2.8,2.03-2.85,3.75-1.91,60.77,5.98,121.82,23.4,180.07,4.15,13.88,8.85,27.6,14.05,41.12,.69,1.79,1.88,2.63,3.75,2.85,29.96,3.52,60.11,5.37,90.27,5.49,34.03,.13,68.07-1.92,101.84-6.15,16.85-2.11,33.64-4.73,50.33-7.88,1.18-.22,2.54-1.5,2.72-2.72,5.05-34.43,7.34-69.21,6.73-104.01-.09-5-7.86-5.01-7.78,0,.6,34.08-1.51,68.21-6.45,101.94l2.72-2.72c-30.62,5.78-61.56,9.77-92.64,11.9-33.11,2.27-66.37,2.46-99.5,.58-16.12-.92-32.2-2.33-48.23-4.21,1.25,.95,2.5,1.9,3.75,2.85C23.97,196.22,11.43,137.72,8.47,78.58c-.77-15.39-.9-30.81-.41-46.22l-2.85,3.75c32.96-9.13,66.68-15.55,100.71-19.01,38.58-3.92,77.53-4.14,116.15-.68,17.5,1.57,34.91,3.91,52.2,7l-2.72-2.72c6.42,29.68,10.7,59.79,12.74,90.09,.68,10.1,1.1,20.22,1.3,30.34,.1,5,7.87,5.01,7.78,0Z"/>
    <path d="M264.01,211.21c-56.15,6.16-112.65,8.95-169.13,8.28-15.16-.18-30.31-.61-45.45-1.27l3.75,2.85c-8.68-38.48-13.68-77.72-14.84-117.15-.32-10.74-.35-21.49-.11-32.24l-2.85,3.75c58.47-9.83,117.55-15.92,176.8-18.22,16.55-.64,33.12-.99,49.69-1.05l-3.75-2.85c6.67,40.62,8.75,81.98,6.03,123.05-.84,12.61-2.12,25.19-3.87,37.7-.29,2.09,.51,4.15,2.72,4.78,1.82,.52,4.49-.64,4.78-2.72,6.12-43.75,6.95-88.1,2.29-132.04-1.16-10.99-2.66-21.95-4.45-32.86-.27-1.65-2.18-2.86-3.75-2.85-60.67,.22-121.3,4.37-181.43,12.43-15.75,2.11-31.46,4.48-47.12,7.11-1.69,.28-2.82,2.17-2.85,3.75-.89,40.52,2.19,81.09,9.14,121.02,1.78,10.2,3.81,20.34,6.09,30.44,.39,1.71,2.09,2.78,3.75,2.85,56.42,2.48,112.99,1.57,169.3-2.77,15.12-1.17,30.21-2.58,45.29-4.24,2.09-.23,3.89-1.62,3.89-3.89,0-1.92-1.79-4.12-3.89-3.89Z"/>
  </g>
  <path d="M231.65,69.23c.06-.2-.59-.53,.5-.43,3.41,.42,5.97,1.66,9.36,2.2l.31-.28c1.27,.37,2.57,.75,3.9,1.14l.49,.15c.07,.03,.04,.03,.06,.05,.01,.03,.02,.05,.03,.07,0,.05,0,.09-.02,.13,0,.02,.01,0,.03,.06l.02,.08,.02,.08,.09,.48,.7,3.86c.48,2.57,.96,5.13,1.43,7.7,.1-.15,.2-.24,.33,.27,.45,2.12,.82,5.1,1.3,8.18,.1,.45,.19,.9,.28,1.34,.13,.34,.26,.41,.34,.45,.2,1.39,.38,2.62,.55,3.78,1.7,7.46,2.9,15.08,4.24,22.87,1.29,7.8,2.49,15.82,3.55,24.19,.59,3.53,1.18,7.06,1.54,10.49,.48,5.08,.6,11.58,.78,16.55,1.19-.82,2.2,11.29,3.32,8.83,.08,3.32,.15,8.31,.48,8.57,1.02,.75,2.28,3.29,2.92,12.16,.16,3.47-.32,8.8-.12,10.02,.31,1.93,.75-4.49,1.06-2.56,.56-25.83-.96-50.71-3.48-76.58-.76-4.37-2.46-21.43-5.66-39.09-1.61-9.48-3.25-19.16-4.66-27.5l-.23-1.34-.11-.66c-.04-.09,0-.26-.1-.29l-.32-.08c-.86-.22-1.72-.43-2.56-.64-1.47-.36-2.9-.72-4.29-1.06-1.76-.41-3.42-.79-4.95-1.14-3.08-.65-5.66-1.2-7.55-1.6l-1.39-.24c-8.3-1.62-18.52-2.82-25.67-2.94-3.29,0-6.63,.12-9.94,.29,1.52,.27,2.93,.55,4.15,.82-3.35-.25-6.7-.4-7.99-.23-7.15,.32-3.11,1.02-.41,1.91,1.94,.43-.72,.87,2.33,1.36-2.2-.09-3.3-.13-5.52-.22-.26,.3,6.8,.04,5.25,.55-2.11-.22-4.5-.08-6.7-.13,.76,.44,7.62,.39,7.26,.84-1.18,.04-6.16-.83-6.6-.25-.09,.11,2.11,.17,3.21,.22-6.78-.01-10.48,.58-4.34,1.23-2.13-.05-5.15-.29-7.41-.18h.02c1.12,.04,3.08,.1,4.11,.13h-3.84c.22,.06,.44,.14,.67,.22,.96,.06,1.92,.11,2.91,.12h-2.55c.64,.17,1.37,.34,2.17,.51,3.02,.36,5.9,.95,7.52,1.02,13.14,.63,26.27,2.19,39.17,4.56Z"/>
  <path class="uuid-e6982941-a79c-4897-8415-6e9b383f9a48" d="M198.93,263.55c-25.96,1.13-51.91,2.25-77.87,3.38,4-16.5,8-33,12-49.49,13.57-1.63,27.14-3.26,40.72-4.89,8.38,17,16.77,34,25.15,51Z"/>
  <g>
    <path class="uuid-ae6f4e65-350a-45d3-a4c5-08a1ac472a61" d="M253.39,227.95c-2.05,1.82-1.57,6.83,.98,8.26,3.08,1.73,8.41-2.19,8.17-4.9-.25-2.82-6.6-5.63-9.16-3.36Z"/>
    <path d="M248.84,238.16c.17-.12,.22-.41,.48-.22,.71,.63,.77,1.73,1.73,2.17l.26-.23c.21,.2,.41,.45,.65,.66,.38,.27,.78,.59,1.23,.83,1.45,.49,3.07,.54,4.6,.11-.05-.12-.07-.23,.07-.3,.6-.21,1.49-.29,2.36-.65,.12-.07,.24-.15,.36-.22,.07-.11,.05-.23,.04-.3,.39-.14,.71-.31,1.03-.44,1.75-1.47,3.07-3.25,3.58-5.09,.28-.91,.32-1.85,.21-2.76l-.15-.69c-.1-.33-.22-.65-.35-.96-.29-.54-.63-1.04-1-1.35-.74-.53-1.45-.73-2.01-1.01-.78-.46-1.63-1.18-2.42-1.54-.17,.57-.77,.83-1.27,1.13-.52,.31-.92,.69-.91,1.31-.39-.13-.99-.24-1.04,.11-.08,.5-.2,1.05-.34,1.53-.08,.23-.11,.5-.15,.71-.01,.11-.05,.2-.03,.3l.03,.14c-.02-.08-.04-.2-.08-.3-.06-.18-.09-.28-.14-.44-.04-.12-.13-.29-.19-.37-.03-.1-.12-.2-.16-.23l.99,1.12h0s0,0,0,0h0s0,.01,0,.01v.02s.01,.03,.01,.03l.03,.06s.06,.06,.11,.08h.04s0,.01,0,.01h0s0,0,0,0l-1.19-1.34h0s0,0,0,0h0s.02,.02,.02,.02l.04,.05c.05,.07,.08,.13,.05,.07,0,.04,.17,.27,.24,.48,.03,.15,.2,.54,.23,.83,.02,.27,.13,.71,.12,1.06-.03,.03,.03,.03,.06,.04,.15,.02,.54,.08,.9,.2,.36,.11,.74,.31,.84,.37,.02,0,0,0,.01,0,.17-.17,.35-.32,.55-.47,.3-.3,.71-.56,1.06-.76,.22-.2,.76-.32,.87-.39,.1-.03,.22-.05,.35-.05h0c.71-.06-6.19,.55-3.27,.29h0s0,0,0,0h0s0,0,0,0h0s0,0,0,0c.22-.02,.35,.17,.21,.39-.12,.21-.51,.38-.71,.23-.08-.07-.12-.14-.12-.21h-.03c-.03-.19-.13-.24-.57-.48-.26-.11-.58-.32-.84-.61-.2,.02-.4,.06-.59,.11,.05-.24,.14-.45-.02-.63-.23-.74-.83-.86-1.68-.84-.4,.11-.76-.49-1.26-.18,.14-.33,.18-.51,.37-.82-.32-.21-.24,1.11-.67,.65,.23-.29,.19-.77,.4-1.1-.49-.14-.7,1.17-1.07,.95-.03-.29,.95-.8,.53-1.15-.08-.07-.31,.29-.39,.49,.35-1.25,.59-2.27-.74-1.49,.27-.42,.85-.8,1.31-1.32h0c-.25,.22-.71,.52-.85,.71,.19-.24,.44-.48,.72-.74-.1-.02-.2-.02-.31-.03-.24,.15-.48,.31-.64,.51,.13-.16,.32-.35,.49-.51-.25,0-.53,.04-.82,.11-.75,.37-1.6,.8-1.81,1.22-1.79,3.23-1.64,7.87,.62,11.12Z"/>
  </g>
  <g>
    <path class="uuid-ae6f4e65-350a-45d3-a4c5-08a1ac472a61" d="M236.66,233.04c-1.03,.91-.79,3.41,.49,4.13,1.54,.86,4.21-1.09,4.09-2.45-.12-1.41-3.3-2.81-4.58-1.68Z"/>
    <path d="M232.03,239.4c.18-.11,.27-.35,.48-.2,.57,.49,.52,1.53,1.51,2.01l.26-.23c.52,.56,1.29,1.12,2.05,1.46,1.54,.32,2.78,.06,3.67-.3-.06-.11-.1-.22-.01-.29,.35-.19,.88-.24,1.34-.43l.17-.15c.02-.09-.02-.2-.05-.27,.14-.06,.33-.13,.54-.21,.81-.89,1.38-1.82,1.81-3.11,.2-.63,.4-1.43,.33-2.44-.04-.55-.19-1.07-.43-1.54-.23-.4-.52-.75-.79-.95-.59-.31-1.11-.33-1.48-.46-.49-.23-.93-.72-1.38-.94-.45,1.09-1.48,1.39-1.56,2.63-.16-.07-.4-.14-.42,.21-.02,.25-.05,.52-.08,.78-.01,.21-.03,.42-.04,.62,.01-.2,0-.6-.11-.99-.06-.18-.08-.28-.16-.4-.02-.05-.06-.1-.08-.12l1.92,2.16h0s0,0,0,0h0s0,.01,0,.01v.02s.02,.03,.02,.03l.04,.05s.06,.06,.1,.09l.03,.02h0s0,0,0,0l-2.11-2.38h0s0,0,0,0h0s0,.01,0,.01l.02,.02s.04,.06,.03,.04c.16,.17,.36,1,.29,1.76-.05,.77-.27,1.34-.27,1.34l.05-.1c.05-.1,.1-.19,.17-.29,.17-.28,.39-.61,.72-.96,.31-.35,.69-.67,1.04-.87,.11-.1,.38-.16,.43-.19,.05-.02,.11-.03,.17-.03-.06,.01-.13,.01-.19,0-.12,0-.84-.15-1.68-.78-.83-.6-1.18-1.28-.86-.74,.32,.47,.61,1.85,.47,2.26-.21,.55,.1-.11,.41-.25l.1-.07c.31-.2,.72-.37,.93-.42,.25-.06,.22-.03,.08-.03-.13,0-.38-.02-.68-.08l.18,.03c-.1-.02-.19-.02-.29-.03,.01-.02,.03-.02,.01-.03-.04-.01-.11-.03-.25-.07-.37-.1-.91-.52-1.73-.61-.38,0-.83-.36-1.26-.21,.08-.19,.11-.28,.22-.47-.33-.15-.06,.65-.54,.35,.18-.16,.07-.46,.21-.68-.48-.13-.49,.73-.89,.57-.07-.2,.81-.47,.34-.76-.09-.07-.25,.2-.3,.33,.12-.82,.3-1.87-.92-1.17,.22-.37,.78-.72,1.1-1.11h0c-.19,.14-.59,.39-.71,.56,.16-.21,.39-.42,.59-.61-.09-.03-.18-.05-.27-.06-.2,.11-.42,.25-.56,.43,.12-.15,.27-.3,.42-.44-.24-.02-.5,0-.76,.06-.75,.36-1.54,.78-1.69,1.14-.66,1.36-.84,2.56-.82,3.75,.05,1.18,.31,2.4,1.12,3.73Z"/>
  </g>
  <g>
    <path class="uuid-ae6f4e65-350a-45d3-a4c5-08a1ac472a61" d="M219.22,235.56c-1.03,.91-.79,3.41,.49,4.13,1.54,.86,4.21-1.09,4.09-2.45-.12-1.41-3.3-2.81-4.58-1.68Z"/>
    <path d="M214.58,241.92c.18-.11,.27-.35,.48-.2,.57,.49,.52,1.53,1.51,2.01l.26-.23c.52,.56,1.29,1.12,2.05,1.46,1.54,.32,2.78,.06,3.67-.3-.06-.11-.1-.22-.01-.29,.35-.19,.88-.24,1.34-.43l.17-.15c.02-.09-.02-.2-.05-.27,.14-.06,.33-.13,.54-.21,.81-.89,1.38-1.82,1.81-3.11,.2-.63,.4-1.43,.33-2.44-.04-.55-.19-1.07-.43-1.54-.23-.4-.52-.75-.79-.95-.59-.31-1.11-.33-1.48-.46-.49-.23-.93-.72-1.38-.94-.45,1.09-1.48,1.39-1.56,2.63-.16-.07-.4-.14-.42,.21-.02,.25-.05,.52-.08,.78-.01,.21-.03,.42-.04,.62,.01-.2,0-.6-.11-.99-.06-.18-.08-.28-.16-.4-.02-.05-.06-.1-.08-.12l1.92,2.16h0s0,0,0,0h0s0,.01,0,.01v.02s.02,.03,.02,.03l.04,.05s.06,.06,.1,.09l.03,.02h0s0,0,0,0l-2.11-2.38h0s0,0,0,0h0s0,.01,0,.01l.02,.02s.04,.06,.03,.04c.16,.17,.36,1,.29,1.76-.05,.77-.27,1.34-.27,1.34l.05-.1c.05-.1,.1-.19,.17-.29,.17-.28,.39-.61,.72-.96,.31-.35,.69-.67,1.04-.87,.11-.1,.38-.16,.43-.19,.05-.02,.11-.03,.17-.03-.06,.01-.13,.01-.19,0-.12,0-.84-.15-1.68-.78-.83-.6-1.18-1.28-.86-.74,.32,.47,.61,1.85,.47,2.26-.21,.55,.1-.11,.41-.25l.1-.07c.31-.2,.72-.37,.93-.42,.25-.06,.22-.03,.08-.03-.13,0-.38-.02-.68-.08l.18,.03c-.1-.02-.19-.02-.29-.03,.01-.02,.03-.02,.01-.03-.04-.01-.11-.03-.25-.07-.37-.1-.91-.52-1.73-.61-.38,0-.83-.36-1.26-.21,.08-.19,.11-.28,.22-.47-.33-.15-.06,.65-.54,.35,.18-.16,.07-.46,.21-.68-.48-.13-.49,.73-.89,.57-.07-.2,.81-.47,.34-.76-.09-.07-.25,.2-.3,.33,.12-.82,.3-1.87-.92-1.17,.22-.37,.78-.72,1.1-1.11h0c-.19,.14-.59,.39-.71,.56,.16-.21,.39-.42,.59-.61-.09-.03-.18-.05-.27-.06-.2,.11-.42,.25-.56,.43,.12-.15,.27-.3,.42-.44-.24-.02-.5,0-.76,.06-.75,.36-1.54,.78-1.69,1.14-.66,1.36-.84,2.56-.82,3.75,.05,1.18,.31,2.4,1.12,3.73Z"/>
  </g>
  <path class="uuid-e6982941-a79c-4897-8415-6e9b383f9a48" d="M191.69,4.14c5.22,10.9,10.43,21.8,15.65,32.7-.89,9.9-1.78,19.8-2.67,29.7H101.04c1.41-9.2,2.82-18.4,4.23-27.59-4.4-11.43-8.8-22.85-13.19-34.28,33.2-.18,66.41-.35,99.61-.53Z"/>
  <path d="M188.47,5.92c5.22,10.9,10.43,21.8,15.65,32.7l-.53-1.96c-.89,9.9-1.78,19.8-2.67,29.7l3.89-3.89H101.18c1.25,1.64,2.5,3.28,3.75,4.92,.84-5.45,1.67-10.9,2.51-16.35,.42-2.73,.84-5.45,1.25-8.18,.2-1.32,.61-2.76,.61-4.1,0-1.45-.91-3.05-1.42-4.37-3.97-10.32-7.94-20.63-11.91-30.95-1.25,1.64-2.5,3.28-3.75,4.92,33.2-.18,66.41-.35,99.61-.53,5-.03,5.01-7.8,0-7.78-33.2,.18-66.41,.35-99.61,.53-2.32,.01-4.68,2.51-3.75,4.92,4.4,11.43,8.8,22.85,13.19,34.28v-2.07c-1.41,9.2-2.82,18.4-4.23,27.59-.38,2.45,.99,4.92,3.75,4.92h103.62c2.24,0,3.7-1.79,3.89-3.89,.51-5.63,1.01-11.27,1.52-16.9,.25-2.73,.49-5.46,.74-8.19,.12-1.35,.35-2.74,.37-4.1,.03-1.65-.67-2.87-1.38-4.34-4.92-10.28-9.84-20.56-14.75-30.83-2.16-4.51-8.87-.57-6.71,3.92Z"/>
  <path d="M198.93,259.66c-25.96,1.13-51.91,2.25-77.87,3.38,1.25,1.64,2.5,3.28,3.75,4.92,4-16.5,8-33,12-49.49-1.25,.95-2.5,1.9-3.75,2.85,13.57-1.63,27.14-3.26,40.72-4.89l-3.36-1.93c8.38,17,16.77,34,25.15,51,2.21,4.49,8.92,.55,6.71-3.92-8.38-17-16.77-34-25.15-51-.54-1.1-2.11-2.07-3.36-1.93-13.57,1.63-27.14,3.26-40.72,4.89-1.68,.2-3.31,1.06-3.75,2.85-4,16.5-8,33-12,49.49-.57,2.35,1.15,5.03,3.75,4.92,25.96-1.13,51.91-2.25,77.87-3.38,4.98-.22,5.01-7.99,0-7.78Z"/>
  <rect class="uuid-cecb5542-6234-42d1-864d-b7e634db330c" x="81.44" y="135.42" width="27.91" height="54.39" rx="13.96" ry="13.96"/>
  <rect class="uuid-cecb5542-6234-42d1-864d-b7e634db330c" x="196.1" y="134.4" width="27.91" height="54.39" rx="13.96" ry="13.96"/>
</svg>