<?xml version="1.0" encoding="UTF-8"?>
<svg id="uuid-53c5eb62-2077-4c38-b3a8-368f46e25a13" data-name="Layer 1" xmlns="http://www.w3.org/2000/svg" viewBox="0 0 664.55 2048.54">
  <defs>
    <style>
      .uuid-e7d6bc28-bbf1-4ba0-bff7-40c1e72b3cf1 {
        fill: #f8fbf6;
      }

      .uuid-2f4c41ab-2bea-4d63-a900-4fe22326cb04 {
        fill: #f7921e;
      }

      .uuid-8d612e67-c718-491f-8fe9-98f4111741b5 {
        fill: #f78f1e;
      }

      .uuid-577b7a56-728e-4295-9ef9-62a33c469445 {
        fill: #f37121;
      }

      .uuid-09fc65ec-96e3-4a41-bbda-a37e50281ee9 {
        fill: #969696;
      }

      .uuid-5f4a4c11-d784-463a-9f64-57b038b30ab5 {
        fill: #ababab;
      }

      .uuid-849d007b-a7bd-4e67-a03f-142968757e1d {
        fill: #231f20;
      }

      .uuid-7570a98b-bbdf-4ed9-a23b-ebc76974d9c3 {
        fill: #232323;
      }
    </style>
  </defs>
  <g>
    <g>
      <path class="uuid-8d612e67-c718-491f-8fe9-98f4111741b5" d="M259.01,1709.49c-15.87-16.45-40.75-37.26-75.87-50.96-52.9-20.63-96.52-12.47-124.43-7.25-28.67,5.36-37.44,12.99-39.41,20.48-.95,3.62-.63,8.4,1.57,11.94,12.52,20.13,75.96-16.17,143.79-4.35,29.53,5.15,54.38,18.47,74.82,34.16"/>
      <path class="uuid-8d612e67-c718-491f-8fe9-98f4111741b5" d="M204.38,1874.57c-20.21,5.15-48.09,15.32-75.48,36.22-41.25,31.49-56.02,67.98-65.48,91.33-9.71,23.98-8.11,33.82-3.34,38.45,2.3,2.23,6.11,3.99,9.88,3.8,21.41-1.07,24.23-64.36,65.94-110.86,18.16-20.24,40.3-33.51,62.14-42.45"/>
      <path class="uuid-8d612e67-c718-491f-8fe9-98f4111741b5" d="M210.42,1760.04c-22.79-1.79-55.21-.85-90.58,12.19-53.27,19.65-80.51,54.69-97.93,77.11-17.9,23.03-19.4,34.56-15.91,41.46,1.69,3.34,5.1,6.7,9.1,7.89,22.72,6.76,46.12-62.49,104.73-98.63,25.52-15.74,52.95-22.25,78.65-24.07"/>
    </g>
    <path d="M156.13,1645.15c-.1,.19,1.52,.81-1.1,.26-8.3-1.48-14.88-3.41-23.34-3.97l-.64,.28c-6.49-.81-13.29-1.21-20.24-1.39-12.8,.18-25.48,1.51-37.84,3.64,.34,.07,.51,.16-.71,.4-2.56,.45-5.61,.98-8.94,1.56-3.3,.58-6.89,1.21-10.62,1.96-1.09,.27-2.18,.53-3.25,.79-.83,.27-1.01,.43-1.13,.53-3.34,.79-6.32,1.6-9.07,2.43-4.48,1.57-8.98,3.35-13.3,6.07-2.16,1.33-4.26,2.97-6.16,4.98-1.89,2-3.54,4.55-4.41,7.41-.91,2.87-1.02,5.7-.68,8.51,.39,2.79,1.27,5.66,3.16,8.14,1.75,2.58,4.53,4.37,7.17,5.34,2.69,1.06,5.34,1.36,7.91,1.54,5.12,.24,9.97-.34,14.76-1.07,4.79-.75,9.52-1.69,14.24-2.69,9.46-2,18.96-4.17,28.71-6.01,8.22-1.71,16.49-3.19,24.52-4.06,11.9-1.25,27.22-1.24,38.75,.2-.41-.35,1.04-.45,3.39-.43,2.33,.1,5.56,.3,8.65,.67,6.19,.67,11.86,1.77,9.23,.45,7.7,1.79,18.8,5.94,19.47,5.92,1.05-.16,3.09,.08,7.34,1.36,4.21,1.37,10.68,3.78,19.98,8.96,3.63,2.05,8,5,11.75,7.65,3.72,2.69,6.8,5.1,8.04,5.9,1.89,1.25-.08-.5-2.15-2.26-2.03-1.78-4.17-3.45-2.18-2.25-12.5-9.14-25.98-16.9-40.31-22.58-14.3-5.72-29.45-9.31-44.73-10.72-15.29-1.37-30.62-.72-45.73,1.13-15.12,1.82-30.06,4.91-44.91,7.8-2.51,.53-6.84,1.47-12.49,2.39-2.81,.44-5.97,.92-9.31,1.15-3.32,.24-6.95,.29-10.05-.44-1.59-.32-2.85-.95-3.83-1.71-.21-.22-.49-.38-.7-.61-.17-.26-.36-.5-.57-.74-.39-.5-.68-1.16-.93-1.87-.49-1.44-.68-3.2-.51-4.89,.18-1.7,.67-3.08,1.66-4.49,1.93-2.84,5.8-5.31,10.06-7.22,4.29-1.95,9.09-3.44,14-4.68,4.94-1.24,9.96-2.21,15.15-3.17,5.13-.93,10.23-1.85,15.25-2.55,10.04-1.47,19.8-2.32,28.82-2.48,18.07-.39,33.07,1.97,41.6,3.83,1.04,.2,2.08,.4,3.12,.6,9.31,2.15,19.42,5.27,28.99,8.9,9.54,3.7,18.44,7.98,25.61,11.79,6.61,3.42,13.2,7.24,19.53,11.4-2.75-2.21-5.32-4.25-7.6-5.93,6.47,4.24,12.61,8.94,15.07,10.62,6.6,4.94,8.06,6.01,7.47,5.04-.59-.96-3.4-3.74-5.64-6.06-3.43-3.1,1.85,.29-3.66-4.42,4.14,3.19,6.19,4.81,10.18,8.21,.35,.05-2.77-2.51-5.63-4.78-2.9-2.22-5.49-4.23-3.88-3.34,3.94,3.15,8.45,6.55,12.39,10.01-.54-.76-3.93-3.78-7.21-6.44-3.27-2.66-6.36-5.03-5.91-4.96,1.17,.8,4.02,3.16,6.64,5.42,2.64,2.24,5.05,4.39,5.62,4.51,.23,.04-3.75-3.39-5.81-5.03,6.35,5.02,11.1,9.15,13,10.64,1.89,1.51,1.11,.21-4.22-4.97,3.88,3.41,8.98,8.62,12.81,12.51l-.02-.04c-1.88-1.97-5.12-5.36-6.95-7.09,2.23,2.14,4.43,4.33,6.58,6.55-.3-.41-.63-.86-.97-1.32-1.56-1.71-3.2-3.36-4.93-5.05,1.46,1.44,2.95,2.86,4.39,4.35-.94-1.24-2.11-2.59-3.38-4.08-5.02-5.38-10.08-10.37-13.18-12.9-12.42-10.31-26.03-19.29-40.53-26.57-7.25-3.62-14.67-6.94-22.34-9.59-1.91-.67-3.79-1.43-5.73-2.03l-5.82-1.78c-3.85-1.28-7.84-2.08-11.76-3.12Z"/>
    <path d="M129.14,1675.32c-3.1-6.02-5.44-12.41-4.95-19.29,.36-5.17,2.81-10.1,7.06-13.15,1.7-1.22,2.53-3.39,1.39-5.32-.98-1.68-3.61-2.63-5.32-1.39-6.34,4.56-9.96,11.07-10.82,18.8-.95,8.54,2.07,16.81,5.92,24.27,2.3,4.45,9.01,.52,6.71-3.92h0Z"/>
    <path d="M156.52,1675.36c-3.78-4.82-7.14-11.09-7.12-17.14,0-2.45,.59-4.6,2.03-6.67,1.2-1.73,3.37-3.31,5.65-4.17,1.96-.75,3.31-2.62,2.72-4.78-.52-1.88-2.81-3.47-4.78-2.72-7.63,2.91-12.92,9.1-13.36,17.44-.45,8.7,4.19,16.94,9.37,23.55,1.3,1.65,4.14,1.36,5.5,0,1.63-1.63,1.3-3.84,0-5.5h0Z"/>
    <path d="M200.4,1688.14c.02-.38,.06-.75,.09-1.13,.06-.81-.15,.79,0-.08,.12-.64,.24-1.27,.4-1.9,.14-.53,.3-1.06,.49-1.57,.04-.1,.41-1.15,.2-.55s.2-.42,.25-.53c.51-1.06,1.12-2.08,1.8-3.04,.11-.15,.21-.29,.32-.44-.3,.39-.37,.47-.19,.25,.22-.22,.41-.49,.62-.73,.39-.45,.81-.87,1.24-1.28s.89-.8,1.35-1.19c.65-.56-.56,.38,.09-.07,.31-.21,.61-.43,.92-.64,1.03-.68,2.12-1.24,3.23-1.77,.79-.38-.63,.22,.13-.06,.36-.13,.72-.28,1.09-.4,.56-.19,1.12-.36,1.69-.51,.67-.18,1.36-.32,2.05-.44,.17-.03,1.17-.25,.17-.04,.39-.08,.82-.09,1.22-.12,2.02-.16,3.99-1.67,3.89-3.89-.09-1.97-1.72-4.06-3.89-3.89-6.5,.53-12.68,2.97-17.44,7.51-4.54,4.34-7.16,10.26-7.5,16.51-.11,2.03,1.87,3.98,3.89,3.89,2.2-.1,3.77-1.71,3.89-3.89h0Z"/>
    <path d="M222.04,1700.54c.19-1.06,.47-2.11,.84-3.12,.09-.24,.16-.53,.29-.75-.52,.86-.06,.16,.05-.06,.23-.49,.49-.97,.76-1.43s.56-.92,.87-1.37c.12-.17,.41-.46,.47-.66-.31,.39-.37,.48-.19,.25,.08-.11,.17-.21,.26-.32,.69-.83,1.45-1.61,2.26-2.34,.2-.18,.41-.36,.62-.53l.21-.17c.33-.26,.28-.22-.15,.11,.26-.36,.95-.68,1.33-.92,.8-.5,1.9-1.33,2.84-1.5l-.44,.19c.16-.07,.33-.13,.5-.19,.25-.09,.5-.18,.75-.26,.46-.15,.93-.28,1.4-.39,.26-.06,.51-.12,.77-.17,.13-.03,1.04-.23,.39-.08s.25-.02,.4-.03c.31-.02,.61-.04,.92-.05,2.03-.07,3.98-1.74,3.89-3.89s-1.71-3.96-3.89-3.89c-10.74,.35-20.72,8.87-22.64,19.49-.36,1.99,.54,4.29,2.72,4.78,1.9,.43,4.39-.58,4.78-2.72h0Z"/>
    <path d="M106.03,1923.77c.11,.19,1.37-.75-.29,1-2.63,2.75-5.01,5.22-7.44,7.65-2.28,2.56-4.75,4.99-6.96,8.11l-.07,.64c-.94,1.14-1.88,2.29-2.84,3.45-.91,1.2-1.83,2.4-2.75,3.62-1.89,2.41-3.63,4.98-5.42,7.56-6.24,9.74-11.34,20.06-15.85,30.45,.23-.22,.39-.3-.02,.75-1.81,4.38-4.38,10.21-6.89,16.53-.35,.95-.7,1.89-1.01,2.85-.19,.76-.15,.99-.12,1.13-1.06,2.91-1.93,5.55-2.65,8.06-1.05,4.16-1.89,8.46-2.04,13.09-.01,2.34,.11,4.75,.75,7.26,.61,2.49,1.87,5.12,3.83,7.19,1.95,2.09,4.24,3.43,6.69,4.35,2.46,.87,5.19,1.38,8.01,.87,1.42-.14,2.73-.67,4.02-1.17,1.19-.65,2.4-1.31,3.36-2.15,1.07-.78,1.84-1.7,2.73-2.58,.74-.93,1.55-1.84,2.18-2.8,2.64-3.81,4.54-7.79,6.31-11.8,1.75-4.01,3.31-8.06,4.84-12.14,3.05-8.16,6.01-16.41,9.34-24.7,2.66-7.07,5.57-14.05,8.82-20.56,4.82-9.64,12.36-21.18,19.03-29.23-.98,.25,2.39-4.73,5.9-9.11,3.46-4.41,6.99-8.25,4.68-6.91,2.58-2.44,5.88-5.42,8.68-7.72,2.75-2.36,5-4.05,5.09-4.38,.35-.91,1.46-2.41,4.42-5.11,2.99-2.66,7.86-6.52,16.14-11.36,3.25-1.88,7.55-3.9,11.33-5.59,3.79-1.66,7.07-2.96,8.24-3.56,3.69-1.93-9.2,3.14-5.52,1.22-12.81,5.54-25.01,12.38-36.16,20.68-11.14,8.28-21.2,18.06-29.66,29.03-8.5,10.94-15.52,22.88-21.51,35.26-6.02,12.36-10.95,25.22-15.96,37.89-.8,2.17-2.2,5.91-4.22,10.63-1.02,2.35-2.18,4.97-3.61,7.61-1.41,2.63-3.1,5.39-5.11,7.42-.99,1.09-2.05,1.73-3.07,2.22-.26,.08-.52,.17-.77,.28-.27,.06-.54,.06-.81,.12-.53,.13-1.14,.07-1.77-.01-1.27-.18-2.67-.74-3.83-1.53-1.18-.81-1.87-1.63-2.43-2.91-1.14-2.53-1.12-6.64-.45-10.74,.69-4.16,1.93-8.49,3.39-12.8,1.46-4.31,3.25-8.61,5.03-13.01,1.78-4.35,3.6-8.62,5.5-12.76,3.79-8.29,7.92-16.06,12.23-22.94,8.61-13.77,17.58-24.05,23.16-29.59,.64-.71,1.31-1.39,2-2.05,6.03-6.13,13.35-12.25,20.62-17.89,7.33-5.57,14.78-10.43,21.04-14.21,5.7-3.54,11.67-6.9,17.78-9.95-2.98,1.09-5.74,2.16-8.11,3.11,6.26-3.06,12.71-5.67,15.12-6.86,6.83-2.92,8.31-3.6,7.28-3.61-1.02,0-4.47,.89-7.31,1.55-3.98,1.22,1.03-1.39-5.15,.72,4.36-1.76,6.56-2.62,11.01-4.19,.19-.27-3.21,1-6.27,2.21-3.05,1.24-5.78,2.34-4.37,1.47,4.24-1.63,8.93-3.6,13.41-5.11-.84,.05-4.73,1.33-8.29,2.67-3.56,1.33-6.81,2.64-6.56,2.3,1.16-.53,4.29-1.69,7.24-2.68,2.94-1.04,5.71-1.93,6.05-2.36,.13-.17-4.35,1.38-6.55,2.24,6.78-2.68,12.13-4.54,14.15-5.38,2.02-.83,.65-.82-5.81,.98,4.41-1.49,10.78-3.11,15.52-4.39h-.04c-2.38,.59-6.49,1.6-8.66,2.25,2.67-.78,5.37-1.52,8.07-2.21-.46,.05-.96,.09-1.47,.15-2.04,.45-4.06,.99-6.16,1.58,1.78-.49,3.56-1.02,5.37-1.49-1.39,.16-2.97,.45-4.71,.77-6.47,1.48-12.66,3.12-16.03,4.38-13.66,4.98-26.87,11.38-39.28,19.11-6.21,3.86-12.2,8.06-17.91,12.62l-4.29,3.42c-1.41,1.16-2.76,2.4-4.14,3.6-2.79,2.37-5.41,4.92-8.02,7.48Z"/>
    <path d="M106.47,1972.45c-7.04-.41-13.66-1.69-19.4-5.76-.02-.01-.96-.73-.42-.3-.29-.23-.58-.47-.86-.72-.55-.48-1.08-.99-1.58-1.52-.25-.26-.49-.53-.72-.8-.03-.04-.75-.94-.29-.33-.43-.56-.82-1.15-1.19-1.76s-.67-1.23-1-1.86c-.41-.8,.12,.41-.16-.37-.12-.33-.25-.66-.36-1-.24-.74-.44-1.49-.6-2.24-.07-.36-.14-.71-.19-1.07-.04-.28-.04-.24,.02,.13-.03-.25-.05-.49-.07-.74-.18-2.09-1.66-3.89-3.89-3.89-1.96,0-4.07,1.78-3.89,3.89,.66,7.73,4.47,14.23,10.66,18.85,6.91,5.16,15.52,6.79,23.94,7.27,2.1,.12,3.89-1.87,3.89-3.89,0-2.21-1.78-3.77-3.89-3.89h0Z"/>
    <path d="M121.43,1948.78c-3.63,.48-7.33,.65-10.98,.21,.35,.04-.79-.12-.78-.12-.44-.07-.88-.16-1.31-.25-.7-.15-1.4-.32-2.09-.53-.79-.23-1.58-.49-2.34-.81,.47,.2-.18-.09-.34-.17-.35-.17-.69-.35-1.03-.53-2.39-1.32-3.9-2.79-5.1-5.24-.09-.19-.33-.81-.15-.31-.13-.37-.26-.73-.37-1.11s-.2-.76-.28-1.15c-.02-.09-.17-1.06-.12-.67s-.04-.61-.04-.69c-.02-.41-.03-.83-.02-1.24s.04-.85,.07-1.27c.06-.72-.03,.09,.1-.7,.36-2.07-.55-4.19-2.72-4.78-1.87-.51-4.42,.64-4.78,2.72-.73,4.2-.52,8.3,1.18,12.25,1.5,3.47,4.14,6.31,7.32,8.33,6.89,4.4,15.9,4.89,23.78,3.85,2.08-.28,3.89-1.59,3.89-3.89,0-1.89-1.79-4.17-3.89-3.89h0Z"/>
    <path d="M152.74,1917.98c-3.43-2.31-5.83-5.91-6.82-10.16-.06-.25-.11-.51-.16-.76-.02-.09-.19-1.07-.12-.64,.05,.36-.04-.39-.05-.46-.03-.33-.06-.66-.07-.98-.06-1.2-.02-2.4,.09-3.6,.11-1.27-.07,.35,.05-.38,.06-.34,.12-.67,.19-1.01,.13-.61,.28-1.22,.45-1.81,.4-1.39,.7-2.15,1.23-3.25,.91-1.89,.52-4.2-1.39-5.32-1.7-1-4.4-.5-5.32,1.39-2.85,5.9-3.88,12.45-2.38,18.88s5.22,11.32,10.39,14.8c1.74,1.17,4.31,.34,5.32-1.39,1.12-1.91,.35-4.14-1.39-5.32h0Z"/>
    <path d="M173.45,1904.96c-.82-.71-1.56-1.48-2.26-2.31-.4-.47,.5,.72-.12-.16-.13-.19-.26-.37-.39-.56-.29-.42-.55-.86-.81-1.31-.28-.5-.54-1-.78-1.52-.03-.07-.3-.72-.15-.32,.18,.47-.15-.4-.18-.49-.37-1.02-.66-2.07-.87-3.13-.04-.22-.07-.45-.12-.67-.11-.46,.05,.61-.02-.15-.05-.51-.09-1.02-.11-1.53-.04-1.07,.01-2.14,.13-3.21-.04,.36-.07,.44,0,.04,.05-.27,.1-.55,.16-.82,.11-.49,.23-.97,.38-1.45,.08-.27,.17-.53,.26-.79,.06-.15,.35-.89,.03-.15,.22-.51,.47-1,.74-1.49,.97-1.78,.5-4.32-1.39-5.32s-4.28-.51-5.32,1.39c-5.17,9.48-2.85,22.35,5.31,29.44,1.53,1.33,4.01,1.62,5.5,0,1.34-1.46,1.64-4.07,0-5.5h0Z"/>
    <path d="M90.42,1779.99c.05,.21,1.68-.41-.65,.93-7.19,4.4-13.4,7.31-20.1,12.51l-.29,.63c-5.39,3.7-10.75,7.91-16.08,12.38-9.46,8.63-18.07,18.03-25.9,27.83,.3-.17,.49-.22-.27,.77-1.62,2.04-3.55,4.45-5.66,7.1-2.09,2.62-4.35,5.47-6.65,8.51-.64,.92-1.28,1.85-1.91,2.75-.44,.75-.47,.99-.49,1.15-1.98,2.81-3.66,5.39-5.18,7.84-2.31,4.15-4.5,8.46-5.93,13.36-.73,2.43-1.22,5.05-1.31,7.81-.09,2.75,.37,5.75,1.61,8.47,1.22,2.75,3.02,4.95,5.14,6.82,2.14,1.82,4.71,3.39,7.77,4,3.03,.77,6.29,.26,8.91-.76,2.72-.99,4.9-2.52,6.94-4.09,3.99-3.22,7.23-6.87,10.34-10.59,3.09-3.73,6-7.57,8.87-11.46,5.75-7.77,11.42-15.7,17.49-23.54,5.01-6.73,10.22-13.32,15.66-19.3,8.08-8.83,19.55-18.98,29.13-25.55-.54,.01,.49-1.03,2.25-2.57,1.81-1.47,4.36-3.46,6.91-5.23,5.07-3.6,10.05-6.54,7.21-5.79,6.95-3.76,18.01-8.02,18.49-8.48,.68-.82,2.36-1.99,6.4-3.85,4.06-1.77,10.5-4.25,20.89-6.55,4.07-.87,9.3-1.57,13.87-2.07,4.57-.46,8.48-.7,9.93-.92,2.24-.32-.39-.32-3.11-.27-2.7,.02-5.41,.19-3.12-.24-15.42,1.45-30.65,4.59-45.15,9.84-14.5,5.21-28.22,12.56-40.59,21.65-12.35,9.11-23.39,19.77-33.47,31.17-10.11,11.39-19.24,23.61-28.44,35.63-1.52,2.06-4.15,5.64-7.76,10.07-1.81,2.19-3.86,4.65-6.21,7.04-2.33,2.38-5.01,4.83-7.82,6.34-1.41,.82-2.76,1.18-4,1.27-.3-.02-.62,.04-.92,0-.3-.08-.61-.14-.92-.18-.62-.12-1.28-.42-1.94-.78-1.32-.75-2.63-1.95-3.62-3.32-.99-1.39-1.54-2.75-1.74-4.46-.44-3.41,.81-7.82,2.74-12.08,1.92-4.3,4.52-8.6,7.38-12.79,2.87-4.2,5.99-8.26,9.24-12.42,3.23-4.1,6.43-8.17,9.72-12.02,6.54-7.76,13.28-14.87,19.93-20.97,13.26-12.28,26.06-20.46,33.67-24.73l2.73-1.62c8.39-4.57,18.03-8.94,27.6-12.57,9.59-3.56,19.09-6.27,26.99-8.16,7.22-1.82,14.68-3.34,22.18-4.42-3.52,.17-6.79,.35-9.62,.6,7.65-1.12,15.37-1.67,18.32-2.05,8.22-.69,10.02-.85,8.94-1.18-1.08-.32-5.02-.54-8.24-.79-4.62-.04,1.58-1.02-5.67-.88,5.21-.36,7.82-.51,13.07-.61,.3-.2-3.73-.04-7.38,.15-3.64,.26-6.91,.47-5.12,.07,5.04-.25,10.67-.7,15.91-.72-.91-.21-5.45-.22-9.67-.04-4.21,.18-8.09,.45-7.71,.21,1.41-.18,5.1-.3,8.57-.35,3.46-.08,6.69-.06,7.2-.36,.2-.13-5.06-.05-7.69,.09,8.08-.45,14.37-.52,16.79-.66,2.42-.13,.97-.58-6.46-.92,5.16-.02,12.44,.5,17.88,.87h-.04c-2.71-.24-7.39-.63-9.9-.71,3.09,.12,6.19,.3,9.27,.54-.5-.11-1.04-.22-1.6-.35-2.3-.25-4.63-.39-7.04-.51,2.05,.11,4.11,.19,6.17,.34-1.53-.31-3.29-.54-5.23-.81-7.33-.69-14.42-1.08-18.42-.91-16.13,.52-32.28,2.83-47.95,6.99-7.83,2.1-15.58,4.54-23.08,7.64-1.88,.76-3.79,1.44-5.64,2.28l-5.54,2.52c-3.73,1.6-7.25,3.65-10.87,5.47Z"/>
    <path d="M87.55,1822.29c-3.43-1.33-6.72-2.87-9.77-4.94-1.39-.95-2.4-1.75-3.7-3-.56-.53-1.1-1.08-1.61-1.66-.28-.31-.54-.62-.8-.93-.13-.16-.26-.31-.38-.47,.16,.2,.16,.2,0-.01-.88-1.21-1.66-2.49-2.31-3.84-.06-.13-.48-1.12-.22-.46-.14-.35-.27-.7-.39-1.06-.22-.65-.41-1.31-.56-1.97-.07-.3-.13-.6-.19-.91-.04-.19-.15-1.13-.08-.43-.08-.74-.12-1.49-.13-2.23s.04-1.51,.12-2.26c-.06,.57,0-.04,.05-.29,.08-.45,.17-.89,.27-1.33,.47-2.04-.63-4.21-2.72-4.78-1.96-.54-4.31,.66-4.78,2.72-1.66,7.25-.16,14.75,4.21,20.78,5.22,7.2,12.77,11.43,20.92,14.59,1.96,.76,4.27-.84,4.78-2.72,.6-2.2-.75-4.02-2.72-4.78h0Z"/>
    <path d="M109.05,1804.35c-1.75-.32-3.49-.71-5.2-1.21-.78-.23-1.55-.48-2.32-.75-.41-.14-.81-.3-1.21-.45l-.4-.16c.21,.09,.2,.09-.04-.02-1.41-.62-2.79-1.33-4.1-2.14-.54-.33-1.06-.7-1.58-1.06-.73-.5,.23,.23-.38-.29-.27-.23-.55-.46-.82-.7-.47-.43-.93-.87-1.36-1.34-.19-.21-.38-.42-.56-.64-.68-.82,.41,.67-.36-.49-.96-1.43-1.44-2.38-1.83-3.92-.32-1.27-.44-2.54-.19-4.18-.07,.48,.15-.64,.17-.74,.11-.45,.23-.9,.37-1.34,.26-.8,.52-1.37,.95-2.18,.97-1.86,.48-4.22-1.39-5.32-1.75-1.02-4.34-.47-5.32,1.39-2.16,4.12-3.1,8.54-2.35,13.15,.64,3.94,2.8,7.57,5.6,10.37,5.35,5.34,12.93,8.18,20.24,9.51,2.06,.37,4.19-.56,4.78-2.72,.52-1.89-.64-4.41-2.72-4.78h0Z"/>
    <path d="M148.31,1784.53c.24,.3-.09-.13-.14-.21-.19-.28-.39-.57-.57-.86-.33-.52-.63-1.05-.91-1.59-.1-.21-.59-1.32-.43-.91-.22-.56-.41-1.13-.58-1.71s-.31-1.16-.42-1.75c-.05-.26-.1-.52-.14-.79,.09,.62-.02-.24-.03-.35-.1-1.2-.1-2.41,0-3.61,0-.07,.08-.81,.04-.49s.07-.42,.08-.49c.11-.6,.24-1.2,.39-1.8s.34-1.19,.55-1.78c.09-.26,.19-.52,.29-.78,.12-.31-.06,.08,.19-.42,1.15-2.39,2.41-4.24,4.09-6,3.45-3.62-2.04-9.13-5.5-5.5-4.52,4.74-7.36,10.71-7.9,17.26s1.63,12.34,5.5,17.27c1.3,1.65,4.14,1.36,5.5,0,1.63-1.63,1.3-3.84,0-5.5h0Z"/>
    <path d="M172.06,1778.46c-.27-.45-.53-.9-.77-1.37-.13-.26-.26-.52-.37-.79,.16,.36,.11,.27,0-.04-.36-.99-.66-1.99-.87-3.02-.06-.29-.1-.58-.16-.86-.13-.59,.04,.6,0,0-.04-.53-.1-1.05-.12-1.57-.04-1.12,.03-2.22,.13-3.33,.06-.6-.13,.58,0,0,.06-.28,.1-.58,.16-.86,.11-.51,.23-1.02,.38-1.52s.3-1,.48-1.49c.08-.22,.16-.43,.25-.65-.21,.52-.03,.1,.1-.18,.45-.93,.96-1.82,1.56-2.66,.04-.06,.47-.62,.2-.29-.3,.38,.28-.33,.34-.4,.38-.43,.77-.83,1.19-1.22,1.52-1.45,1.46-4.04,0-5.5-1.52-1.52-3.97-1.45-5.5,0-7.87,7.47-9.28,20.49-3.71,29.69,1.09,1.8,3.49,2.47,5.32,1.39s2.48-3.52,1.39-5.32h0Z"/>
  </g>
  <g>
    <g>
      <path class="uuid-8d612e67-c718-491f-8fe9-98f4111741b5" d="M404.91,1706.73c15.87-16.45,40.75-37.26,75.87-50.96,52.9-20.63,96.52-12.47,124.43-7.25,28.67,5.36,37.44,12.99,39.41,20.48,.95,3.62,.63,8.4-1.57,11.94-12.52,20.13-75.96-16.17-143.79-4.35-29.53,5.15-54.38,18.47-74.82,34.16"/>
      <path class="uuid-8d612e67-c718-491f-8fe9-98f4111741b5" d="M459.54,1871.82c20.21,5.15,48.09,15.32,75.48,36.22,41.25,31.49,56.02,67.98,65.48,91.33,9.71,23.98,8.11,33.82,3.34,38.45-2.3,2.23-6.11,3.99-9.88,3.8-21.41-1.07-24.23-64.36-65.94-110.86-18.16-20.24-40.3-33.51-62.14-42.45"/>
      <path class="uuid-8d612e67-c718-491f-8fe9-98f4111741b5" d="M453.5,1757.28c22.79-1.79,55.21-.85,90.58,12.19,53.27,19.65,80.51,54.69,97.93,77.11,17.9,23.03,19.4,34.56,15.91,41.46-1.69,3.34-5.1,6.7-9.1,7.89-22.72,6.76-46.12-62.49-104.73-98.63-25.52-15.74-52.95-22.25-78.65-24.07"/>
    </g>
    <path d="M510.16,1652.77c0-.22-1.63-.03,.82-.73,7.83-1.78,14.29-2.27,22.24-3.18l.54-.39c6.2-.49,12.68-.5,19.28-.37,12.17,.08,24.28,1.18,36.33,3.03-.29-.17-.42-.31,.78-.16,2.51,.35,5.5,.89,8.77,1.5,3.29,.62,6.83,1.33,10.32,2.06,1.04,.21,2.08,.43,3.1,.64,.81,.11,1.04,.04,1.19,0,3.15,.77,5.88,1.58,8.37,2.4,4.1,1.26,8.16,2.73,11.63,4.75,3.48,2,6.33,4.53,7.36,7.54,1.11,3,.81,7.33-.96,9.8-1.54,2.58-5.22,3.89-9.44,4.27-4.23,.37-8.8,.05-13.4-.46-4.61-.53-9.28-1.26-14.01-2.07-9.45-1.61-19.1-3.41-29.01-4.89-8.41-1.11-16.86-1.98-25.02-2.58-12.06-1.01-27.59-1.45-39.4-.05,.48,.25-.95,.67-3.25,1.17-2.3,.58-5.48,1.23-8.49,2.04-6.05,1.55-11.42,3.51-8.53,3.37-7.58,1.71-18.55,5.73-18.95,6.33-.66,.78-2.26,2.01-5.96,4.14-3.67,2.21-9.46,5.3-18.03,10.75-3.39,2.07-7.64,4.77-11.31,7.21-3.64,2.48-6.67,4.71-7.73,5.64-1.69,1.5,.51,.03,2.67-1.35,2.16-1.42,4.38-2.72,2.68-1.32,11.99-8.54,24.71-15.75,38.11-21.05,13.39-5.33,27.41-8.69,41.71-10.08,14.32-1.35,28.87-.83,43.45,.88,14.6,1.69,29.18,4.64,44.19,7.57,2.58,.41,6.97,1.23,12.94,2.1,3,.41,6.36,.87,10.2,1.08,3.83,.18,8.1,.34,13.08-.86,2.45-.56,5.2-1.71,7.62-3.68,2.48-1.94,4.31-4.87,5.24-7.75,.94-2.92,1.2-5.91,.88-8.97-.3-3.04-1.5-6.37-3.39-8.95-3.81-5.27-9.02-8.09-14.04-10.39-5.09-2.26-10.32-3.84-15.59-5.14-5.25-1.3-10.62-2.3-15.76-3.24-5.21-.93-10.42-1.85-15.6-2.57-10.35-1.5-20.53-2.37-29.97-2.54-18.91-.42-34.69,2.01-43.68,3.84-1.1,.22-2.18,.44-3.27,.66-9.8,2.19-20.42,5.48-30.37,9.42-9.93,4-19.12,8.73-26.35,13.11-6.61,4.07-13.05,8.61-19.19,13.45,3.07-1.95,5.93-3.72,8.49-5.12-6.67,4.3-13,9.09-15.25,11.15-6.44,5.46-7.54,6.96-6.53,6.47,1.01-.49,4.31-2.76,7.08-4.46,3.87-2.54-.72,1.69,5.21-2.42-4.13,3.14-6.19,4.74-10.18,8.1-.13,.3,2.91-2.3,5.73-4.58,2.86-2.24,5.44-4.21,4.18-2.89-4.06,2.92-8.28,6.62-12.2,10.01,.84-.41,4.25-3.33,7.53-5.89,3.28-2.56,6.38-4.84,6.2-4.4-1.09,.87-4.08,2.95-6.79,5.03-2.73,2.06-5.16,4.13-5.36,4.66-.08,.21,3.86-3.14,5.9-4.74-6.14,5.08-10.57,9.39-12.12,11.19-1.54,1.81-.37,.94,5.23-3.64-3.79,3.28-9.09,8.03-12.71,11.92l.03-.02c1.86-1.89,5.18-5.04,6.97-6.7-2.19,2.07-4.34,4.18-6.45,6.33,.4-.3,.83-.62,1.27-.96,1.64-1.55,3.27-3.11,4.97-4.72-1.43,1.39-2.88,2.76-4.29,4.19,1.21-.97,2.55-2.04,4-3.21,5.36-4.69,10.87-8.67,13.85-11.06,12.05-9.67,25.15-18.03,39.01-24.8,6.93-3.37,14.02-6.46,21.32-8.93,1.82-.63,3.61-1.34,5.45-1.9l5.52-1.66c3.65-1.2,7.43-1.93,11.14-2.91Z"/>
    <path d="M541.5,1676.49c3.85-7.46,6.87-15.73,5.92-24.27-.86-7.73-4.48-14.25-10.82-18.8-1.71-1.23-4.33-.3-5.32,1.39-1.15,1.96-.32,4.09,1.39,5.32,4.25,3.05,6.7,7.98,7.06,13.15,.48,6.87-1.85,13.27-4.95,19.29-2.29,4.44,4.42,8.38,6.71,3.92h0Z"/>
    <path d="M512.9,1678.1c5.18-6.61,9.83-14.85,9.37-23.55-.44-8.34-5.72-14.53-13.36-17.44-1.96-.75-4.26,.83-4.78,2.72-.6,2.19,.75,4.03,2.72,4.78,2.21,.84,4.32,2.36,5.52,3.99,1.54,2.09,2.15,4.35,2.15,6.86,.02,6.04-3.34,12.32-7.12,17.14-1.29,1.65-1.61,3.89,0,5.5,1.35,1.35,4.2,1.66,5.5,0h0Z"/>
    <path d="M471.31,1685.39c-.34-6.25-2.96-12.16-7.5-16.51-4.75-4.55-10.94-6.98-17.44-7.51-2.03-.17-3.98,1.91-3.89,3.89,.1,2.25,1.71,3.71,3.89,3.89,.4,.03,.83,.04,1.22,.12-.65-.14-.26-.03,.17,.04,.69,.12,1.37,.27,2.05,.44,.57,.15,1.13,.32,1.69,.51,.32,.11,.64,.23,.96,.35,.95,.37-.45-.23,.27,.11,1.12,.52,2.2,1.1,3.23,1.77,.27,.18,.54,.37,.81,.56,.83,.57-.38-.35,.21,.15,.46,.39,.91,.77,1.35,1.19s.84,.84,1.24,1.28c.18,.2,.35,.42,.53,.62,.26,.33,.23,.28-.1-.14,.11,.14,.22,.29,.32,.44,.69,.96,1.29,1.98,1.8,3.04,.11,.23,.27,.49,.34,.74-.27-1.05,.03,.11,.11,.34,.18,.52,.35,1.04,.49,1.57,.17,.63,.29,1.26,.4,1.9,.17,.94-.07-.88,0,.08,.03,.38,.07,.75,.09,1.13,.11,2.03,1.71,3.99,3.89,3.89,2.01-.09,4.01-1.71,3.89-3.89h0Z"/>
    <path d="M449.38,1695.72c-1.92-10.62-11.9-19.14-22.64-19.49-2.03-.07-3.98,1.83-3.89,3.89,.1,2.16,1.71,3.82,3.89,3.89,.17,0,1.53-.01,1.58,.11-.6-.08-.68-.09-.25-.03l.26,.05c.26,.05,.52,.1,.77,.16,.52,.12,1.03,.26,1.53,.42,.25,.08,.5,.17,.75,.26s.91,.49,.06,0c.93,.53,1.92,.93,2.84,1.5,.41,.26,.88,.77,1.33,.92-.39-.31-.48-.37-.25-.2,.11,.08,.21,.17,.32,.26,.21,.17,.41,.35,.62,.53,.81,.72,1.56,1.5,2.26,2.34,.19,.23,.77,.64,.06,.06,.19,.15,.34,.46,.47,.66,.31,.45,.6,.9,.87,1.37s.52,.94,.76,1.43c.06,.12,.42,.81,.14,.27s.11,.28,.16,.41c.39,1.06,.68,2.14,.88,3.25,.36,2.01,2.91,3.32,4.78,2.72,2.15-.7,3.1-2.63,2.72-4.78h0Z"/>
    <path d="M550.39,1928.56c.18-.11-.73-1.29,.99,.24,2.64,2.47,4.71,5,6.84,7.45,1.97,2.59,4.12,5.03,6.35,7.86l.59,.2c.83,1.12,1.67,2.26,2.51,3.41,.8,1.18,1.6,2.37,2.41,3.57,1.65,2.38,3.16,4.9,4.72,7.43,5.98,9.15,10.97,18.88,15.53,28.83,0-.31,.05-.48,.52,.5,1.89,4.11,4.28,10.12,6.61,16.18,.37,.88,.73,1.77,1.06,2.64,.32,.66,.49,.8,.6,.89,.98,2.74,1.72,5.2,2.3,7.48,1.1,3.7,1.96,7.45,2.23,11.01,.21,3.55-.26,6.81-1.97,8.69-1.66,2.01-5.14,3.57-7.73,3.18-.68,0-1.32-.28-1.99-.46-.64-.35-1.32-.62-1.96-1.15-.67-.4-1.27-1.09-1.92-1.65-.59-.7-1.23-1.33-1.79-2.11-2.31-3.02-4.28-6.63-6.11-10.36-1.84-3.74-3.55-7.64-5.24-11.61-3.38-7.94-6.73-16.13-10.46-24.36-3.27-6.91-6.79-13.72-10.34-20.18-5.11-9.64-12.39-21.6-19.16-29.9,.05,1-4.07-3.5-8.24-7.27-4.13-3.82-8.22-6.96-6.78-4.77-2.52-2.42-5.74-5.37-8.54-7.59-2.74-2.28-5.04-3.82-5.33-3.88-.94-.1-2.68-.69-6.08-2.49-3.43-1.76-8.56-4.72-16.74-8.8-3.16-1.67-7.21-3.72-10.77-5.46-3.58-1.7-6.69-3.05-7.9-3.45-3.79-1.27,8.27,4.3,4.47,3.04,24.18,10.79,45.72,26.22,61.56,46.65,7.97,10.17,14.69,21.39,20.5,33.23,5.84,11.85,10.69,24.32,15.75,37.12,.94,2.16,2.46,5.89,4.71,10.85,1.14,2.48,2.43,5.26,4.13,8.3,1.72,3.02,3.68,6.35,6.95,9.62,1.57,1.64,3.75,3.19,6.33,4.28,.67,.24,1.36,.47,2.05,.68,.7,.16,1.44,.24,2.17,.35,1.46,.22,2.92,.1,4.32-.12,2.81-.47,5.4-1.54,7.78-3.18,2.38-1.59,4.62-4.23,5.75-7.05,1.19-2.82,1.57-5.67,1.64-8.34,.09-2.7-.26-5.22-.63-7.74-.86-4.97-2.27-9.7-3.86-14.33-1.6-4.65-3.49-9.12-5.28-13.49-1.82-4.41-3.71-8.8-5.69-13.09-3.94-8.58-8.29-16.72-12.8-23.94-9.04-14.47-18.45-25.35-24.23-31.27-.68-.74-1.4-1.44-2.12-2.13-6.3-6.5-14-12.93-21.71-18.71-7.77-5.72-15.72-10.57-22.47-14.1-6.22-3.18-12.72-6.05-19.3-8.58,2.92,1.49,5.58,2.95,7.84,4.29-6.4-3.19-13.01-5.92-15.64-6.73-7.18-2.5-8.86-2.67-8.03-2.08,.83,.6,4.08,2.17,6.64,3.59,3.73,1.88-1.68,.29,4.2,3.06-4.32-1.78-6.5-2.66-10.92-4.25-.3,.05,3.1,1.23,6.16,2.4,3.04,1.2,5.74,2.32,4.13,1.96-4.11-1.85-8.91-3.42-13.32-4.95,.69,.49,4.5,1.83,7.98,3.23,3.48,1.39,6.66,2.76,6.23,2.84-1.19-.42-4.14-1.85-6.99-3.01-2.83-1.21-5.55-2.16-6.06-2.05-.2,.05,4.19,1.6,6.36,2.47-6.74-2.47-12.1-3.97-14.21-4.35-2.11-.37-.92,.19,5.17,2.52-4.27-1.47-10.34-3.51-15-4.6l.03,.02c2.31,.61,6.24,1.82,8.35,2.46-2.59-.78-5.21-1.52-7.83-2.21,.41,.18,.85,.38,1.31,.59,1.95,.59,3.89,1.18,5.91,1.78-1.73-.49-3.45-1.02-5.19-1.48,1.3,.53,2.73,1.11,4.28,1.74,6.05,2.12,11.62,4.67,14.83,5.9,12.97,5.01,25.45,11.31,37.15,18.8,5.85,3.74,11.51,7.79,16.89,12.16l4.04,3.27c1.33,1.11,2.59,2.29,3.89,3.43,2.63,2.25,5.09,4.67,7.55,7.09Z"/>
    <path d="M557.46,1977.47c8.42-.49,17.03-2.11,23.94-7.27,6.19-4.62,10-11.13,10.66-18.85,.18-2.09-1.92-3.89-3.89-3.89-2.25,0-3.71,1.79-3.89,3.89-.02,.2-.12,1.13-.02,.43-.05,.36-.11,.72-.19,1.07-.15,.76-.35,1.51-.58,2.25-.11,.34-.23,.67-.35,1-.06,.17-.13,.33-.19,.49,.14-.33,.15-.37,.04-.12-.3,.64-.62,1.26-.98,1.87-.39,.66-.82,1.3-1.28,1.91,.4-.53-.18,.2-.29,.33-.23,.27-.48,.54-.72,.8-.5,.53-1.03,1.04-1.58,1.52-.28,.25-.56,.48-.86,.72,.51-.4-.33,.24-.42,.3-5.74,4.07-12.36,5.36-19.4,5.76-2.1,.12-3.89,1.7-3.89,3.89,0,2.01,1.78,4.01,3.89,3.89h0Z"/>
    <path d="M542.5,1953.8c7.88,1.05,16.89,.55,23.78-3.85,3.18-2.03,5.81-4.86,7.32-8.33,1.71-3.94,1.91-8.05,1.18-12.25-.36-2.07-2.9-3.23-4.78-2.72-2.19,.6-3.08,2.71-2.72,4.78,.15,.84,.24,2.66,.1,4.02,.07-.68-.09,.52-.1,.55-.08,.39-.17,.77-.28,1.15-.09,.31-.2,.62-.3,.93-.1,.25-.09,.24,.03-.03l-.16,.35c-1.26,2.56-2.73,4.05-5.19,5.41-2.12,1.18-5.22,2.08-7.96,2.42-3.38,.42-7.35,.26-10.92-.22-2.09-.28-3.89,1.98-3.89,3.89,0,2.33,1.8,3.61,3.89,3.89h0Z"/>
    <path d="M515.11,1921.94c5.18-3.48,8.96-8.69,10.39-14.8,1.5-6.43,.47-12.99-2.38-18.88-.91-1.89-3.61-2.4-5.32-1.39-1.93,1.13-2.31,3.42-1.39,5.32,.53,1.1,.78,1.71,1.17,3.05,.2,.66,.37,1.34,.51,2.02,.06,.27,.1,.54,.15,.81l.07,.4c-.04-.29-.04-.3,0-.03,.13,1.2,.17,2.4,.12,3.6-.03,.59-.07,1.18-.15,1.77,.09-.65-.05,.2-.07,.32-.06,.32-.13,.64-.2,.95-.13,.57-.29,1.13-.47,1.68-.08,.24-.56,1.55-.35,1.06-.44,1.06-1.01,2.08-1.64,3.04-.18,.27-.36,.53-.55,.79-.4,.56,.57-.64-.22,.28-.38,.44-.76,.88-1.18,1.29-1.02,1.03-1.47,1.38-2.42,2.01-1.74,1.17-2.5,3.43-1.39,5.32,1.01,1.73,3.57,2.57,5.32,1.39h0Z"/>
    <path d="M495.97,1907.7c8.17-7.09,10.49-19.96,5.31-29.44-.98-1.79-3.59-2.51-5.32-1.39s-2.44,3.41-1.39,5.32c.27,.49,.52,.98,.74,1.49-.14-.34-.14-.36-.02,0,.09,.26,.18,.52,.27,.79,.15,.48,.28,.96,.39,1.45,.06,.27,.12,.55,.17,.82,.02,.08,.13,.8,.06,.31-.08-.54,.04,.38,.04,.49,.02,.28,.04,.56,.05,.84,.02,.51,.03,1.02,.01,1.52s-.05,1.02-.1,1.53c-.04,.36-.11,.71-.01,.15-.05,.28-.1,.56-.15,.84-.2,1.01-.47,2-.81,2.97-.09,.27-.2,.53-.3,.8,.13-.35,.14-.31,0,.02-.24,.52-.49,1.03-.77,1.53-.25,.45-.51,.88-.8,1.31-.12,.18-.97,1.3-.5,.73-.73,.88-1.51,1.69-2.37,2.44-1.54,1.34-1.47,4.15,0,5.5,1.64,1.51,3.85,1.43,5.5,0h0Z"/>
    <path d="M568.39,1786.56c.15-.16-1.2-1.1,1.1,0,7.04,3.86,12.2,7.78,18.76,12.37l.67,.06c4.96,3.74,9.82,8.03,14.67,12.51,9.05,8.13,17.38,16.99,25.17,26.36-.1-.32-.11-.51,.69,.4,1.65,1.93,3.53,4.31,5.57,6.93,2.05,2.64,4.23,5.52,6.36,8.39,.63,.85,1.27,1.7,1.89,2.53,.53,.62,.75,.72,.89,.79,1.85,2.66,3.35,5.08,4.68,7.35,2.23,3.67,4.3,7.46,5.56,11.27,1.28,3.81,1.73,7.58,.51,10.52-1.16,2.98-4.26,6.02-7.22,6.7-2.86,.91-6.49-.55-9.9-3.07-3.41-2.52-6.62-5.8-9.72-9.23-3.1-3.45-6.11-7.1-9.11-10.84-6.01-7.47-12.03-15.22-18.47-22.9-5.55-6.41-11.3-12.67-17.01-18.53-8.36-8.75-19.69-19.39-29.45-26.17,.2,.51-1.15-.13-3.21-1.28-2.1-1.09-4.92-2.71-7.71-4.11-5.56-2.85-10.88-4.95-8.62-3.14-6.81-3.74-17.68-8.02-18.38-7.83-1.01,.14-3.03,.01-7.21-.86-4.21-.78-10.6-2.31-20.62-3.92-3.91-.69-8.88-1.5-13.25-2.1-4.37-.56-8.12-.9-9.53-.91-2.26,0,.37,.36,2.9,.76,2.56,.36,5.08,.87,2.88,.78,14.64,1.56,28.94,4.6,42.48,9.53,13.56,4.9,26.28,11.67,37.9,20.12,11.61,8.49,22.16,18.53,31.93,29.48,9.81,10.95,18.76,22.83,28.05,34.98,1.66,2.02,4.4,5.55,8.29,10.15,1.98,2.29,4.18,4.87,6.92,7.57,2.75,2.68,5.84,5.62,10.36,8.03,2.2,1.21,5.02,2.16,8.14,2.3,3.14,.2,6.46-.79,9.06-2.32,2.64-1.56,4.82-3.63,6.61-6.13,1.79-2.47,3.1-5.77,3.4-8.94,.64-6.47-1.38-12.04-3.61-17.09-2.31-5.07-5.18-9.72-8.25-14.19-3.07-4.46-6.42-8.77-9.65-12.88-3.28-4.15-6.57-8.29-9.98-12.27-6.76-7.99-13.79-15.39-20.74-21.78-13.87-12.85-27.29-21.51-35.23-26.1-.97-.56-1.93-1.12-2.89-1.68-8.78-4.86-18.92-9.44-28.98-13.1-10.08-3.59-20.1-6.15-28.42-7.67-7.64-1.34-15.48-2.22-23.28-2.67,3.59,.58,6.91,1.16,9.75,1.8-7.84-1.2-15.76-1.82-18.81-1.77-8.44-.18-10.26,.21-9.18,.51,1.08,.31,5.06,.79,8.25,1.36,4.59,.67-1.67,.79,5.5,1.64-5.18-.39-7.77-.56-12.99-.69-.3,.14,3.7,.21,7.33,.37,3.62,.22,6.86,.46,5.04,.61-4.98-.51-10.58-.54-15.77-.6,.9,.25,5.39,.33,9.54,.58,4.16,.26,7.98,.61,7.56,.82-1.39-.07-5.01-.5-8.42-.74-3.41-.27-6.6-.33-7.1-.06-.2,.1,4.98,.21,7.56,.37-7.96-.28-14.14,.01-16.49,.34-2.36,.34-.9,.46,6.33,.74-5.01-.06-12.13-.02-17.42,.49h.04c2.65-.18,7.21-.33,9.66-.39-3.01,.1-6.02,.25-9.03,.46,.49,.04,1.03,.08,1.59,.13,2.26-.08,4.51-.16,6.85-.24-1.99,.09-3.99,.15-5.99,.29,1.54,.08,3.26,.16,5.12,.25,7.12,.04,13.89,.72,17.7,.91,15.43,.76,30.78,3.19,45.64,7.31,7.42,2.08,14.78,4.46,21.87,7.46,1.78,.74,3.59,1.39,5.34,2.2l5.23,2.42c3.53,1.52,6.84,3.48,10.27,5.21Z"/>
    <path d="M578.44,1827.04c8.14-3.15,15.7-7.38,20.92-14.59,4.37-6.03,5.87-13.53,4.21-20.78-.47-2.05-2.82-3.25-4.78-2.72-2.1,.58-3.19,2.73-2.72,4.78,.09,.38,.17,.76,.24,1.14,0,.05,.16,1.25,.08,.48,.08,.75,.12,1.5,.12,2.26,0,.68-.04,1.36-.11,2.05-.03,.28-.02,.25,.02-.11-.03,.18-.06,.37-.09,.55-.06,.3-.11,.61-.18,.91-.16,.73-.37,1.45-.61,2.15-.12,.36-.25,.71-.39,1.06,.26-.66-.21,.44-.22,.46-.65,1.35-1.43,2.63-2.31,3.84-.16,.21-.16,.22,0,.01l-.25,.32c-.26,.32-.52,.63-.8,.94-.56,.63-1.14,1.23-1.75,1.81-1.24,1.18-2.23,1.98-3.51,2.87-3.1,2.13-6.46,3.71-9.96,5.07-1.96,.76-3.31,2.61-2.72,4.78,.51,1.87,2.81,3.48,4.78,2.72h0Z"/>
    <path d="M556.95,1809.1c7.31-1.32,14.89-4.17,20.24-9.51,2.81-2.8,4.94-6.43,5.6-10.37,.77-4.6-.2-9.04-2.35-13.15-.97-1.86-3.57-2.42-5.32-1.39-1.88,1.1-2.37,3.45-1.39,5.32,.69,1.32,1.3,2.99,1.5,4.33,.07,.44,.11,1.45,.09,2.13,0,.11-.09,1.25-.02,.7-.04,.36-.13,.72-.21,1.07-.39,1.67-.89,2.61-1.88,4.13l-.27,.38c.15-.19,.16-.2,.01-.02-.18,.22-.36,.43-.55,.64-.47,.52-.96,1.01-1.47,1.47-.22,.2-.45,.39-.68,.58-.14,.12-.28,.23-.42,.34,.25-.2,.27-.21,.05-.05-.56,.41-1.14,.8-1.73,1.17-1.25,.78-2.56,1.45-3.91,2.06-.82,.37-2.61,1-3.95,1.4-1.78,.53-3.59,.94-5.42,1.27-2.07,.37-3.24,2.89-2.72,4.78,.6,2.18,2.71,3.09,4.78,2.72h0Z"/>
    <path d="M521.11,1787.28c3.88-4.92,6.02-10.95,5.5-17.27-.54-6.55-3.38-12.52-7.9-17.26-3.46-3.63-8.95,1.88-5.5,5.5,1.64,1.72,2.89,3.48,4,5.81,.31,.66,.75,1.83,1.06,2.98,.16,.59,.3,1.19,.41,1.8,.05,.27,.1,.53,.13,.8-.07-.54,0,.18,.02,.37,.09,1.13,.1,2.28,.01,3.41,0,.09-.12,1.08-.06,.67,.05-.34-.07,.4-.09,.47-.11,.59-.24,1.17-.4,1.75s-.36,1.15-.56,1.71c-.23,.62,.2-.42-.07,.19-.11,.25-.23,.49-.35,.73-.27,.55-.57,1.08-.89,1.6-.18,.29-.37,.58-.56,.86-.04,.06-.54,.73-.26,.38-1.3,1.65-1.61,3.89,0,5.5,1.35,1.35,4.19,1.66,5.5,0h0Z"/>
    <path d="M498.58,1779.63c5.56-9.2,4.15-22.22-3.71-29.69-1.52-1.45-3.99-1.51-5.5,0-1.46,1.46-1.53,4.05,0,5.5,.37,.35,.73,.71,1.07,1.1,.19,.21,.37,.43,.55,.65-.24-.29-.18-.25,.01,.03,.58,.86,1.12,1.72,1.58,2.65,0-.02,.43,.92,.23,.48-.17-.39,.1,.27,.13,.34,.18,.49,.35,.98,.5,1.48,.16,.56,.3,1.12,.42,1.69,.05,.23,.09,.46,.13,.69,.15,.74,0-.29,.04,.18,.1,1.05,.17,2.1,.14,3.15-.02,.53-.06,1.05-.1,1.58-.03,.37-.06,.39,0,0-.05,.29-.1,.58-.15,.86-.2,1.03-.49,2.04-.85,3.03-.03,.07-.29,.73-.13,.35,.19-.45-.2,.41-.24,.49-.26,.52-.54,1.03-.84,1.53-1.05,1.74-.44,4.35,1.39,5.32s4.2,.47,5.32-1.39h0Z"/>
  </g>
  <path class="uuid-5f4a4c11-d784-463a-9f64-57b038b30ab5" d="M312.34,8.09c.81,223.22,1.61,446.45,2.42,669.67,.8,222.08,1.61,444.17,2.41,666.25,.45,125.28,.91,250.56,1.36,375.84,.04,10.78,10.41,10.8,10.37,0-.81-223.22-1.61-446.45-2.42-669.67-.8-222.08-1.61-444.17-2.41-666.25-.45-125.28-.91-250.56-1.36-375.84-.04-10.78-10.41-10.8-10.37,0h0Z"/>
  <rect class="uuid-7570a98b-bbdf-4ed9-a23b-ebc76974d9c3" x="217.02" y="1743.47" width="233.6" height="169.87"/>
  <path class="uuid-577b7a56-728e-4295-9ef9-62a33c469445" d="M471.77,1844.74c-7.77-42.1-15.54-84.2-23.31-126.31-117.03,18.08-141.8,24.87-141.48,27.65,.25,2.16,17.31,1.28,52.49,2.88,29.99,1.36,54.55,3.68,71.14,5.5,3.55,12.09,6.81,25.12,9.53,39.02,7.47,38.22,8.87,72.85,7.66,101.88,2.69-.04,5.39-.08,8.08-.12"/>
  <path class="uuid-2f4c41ab-2bea-4d63-a900-4fe22326cb04" d="M470.9,1829.87c-.87-47.13-6.95-88.19-14.17-121.47-37.25-6.67-85.77-11.8-142.22-8.6-51.1,2.89-94.75,11.81-128.91,21.29-.94,29.38,.22,64.93,6.43,104.73,7.2,46.12,19.16,85.03,30.87,115.42,37.8,4.46,82.53,7,132.6,4.53,40.52-2,77.04-6.91,108.81-12.93,4.32-29.32,7.31-64.02,6.59-102.97Zm-25.46,73.96c-32.49,3.58-67.44,6.27-104.6,7.55-39.08,1.35-75.85,.97-109.99-.54-5.49-24.26-10.26-52.1-12.94-83.03-2.11-24.35-2.62-46.94-2.16-67.39,39.62-6.67,82.88-12.21,129.4-15.64,34.46-2.54,67.24-3.67,98.13-3.77,6.46,39.21,9.66,84.49,5.39,134.25-.84,9.8-1.93,19.33-3.23,28.58Z"/>
  <g>
    <path d="M472.7,1832.33c-.64-33.16-3.87-66.26-9.66-98.92-1.4-7.89-2.95-15.75-4.65-23.59-.26-1.21-1.47-2.49-2.72-2.72-33.58-5.99-67.63-9.28-101.74-9.68-39.55-.45-79.13,2.96-118.03,10.08-17.98,3.29-35.81,7.4-53.42,12.28-1.69,.47-2.8,2.03-2.85,3.75-1.91,60.77,5.98,121.82,23.4,180.07,4.15,13.88,8.85,27.6,14.05,41.12,.69,1.79,1.88,2.63,3.75,2.85,29.96,3.52,60.11,5.37,90.27,5.49,34.03,.13,68.07-1.92,101.84-6.15,16.85-2.11,33.64-4.73,50.33-7.88,1.18-.22,2.54-1.5,2.72-2.72,5.05-34.43,7.34-69.21,6.73-104.01-.09-5-7.86-5.01-7.78,0,.6,34.08-1.51,68.21-6.45,101.94l2.72-2.72c-30.62,5.78-61.56,9.77-92.64,11.9-33.11,2.27-66.37,2.46-99.5,.58-16.12-.92-32.2-2.33-48.23-4.21,1.25,.95,2.5,1.9,3.75,2.85-21.25-55.26-33.79-113.76-36.75-172.91-.77-15.39-.9-30.81-.41-46.22l-2.85,3.75c32.96-9.13,66.68-15.55,100.71-19.01,38.58-3.92,77.53-4.14,116.15-.68,17.5,1.57,34.91,3.91,52.2,7l-2.72-2.72c6.42,29.68,10.7,59.79,12.74,90.09,.68,10.1,1.1,20.22,1.3,30.34,.1,5,7.87,5.01,7.78,0Z"/>
    <path d="M443.35,1902.4c-56.15,6.16-112.65,8.95-169.13,8.28-15.16-.18-30.31-.61-45.45-1.27l3.75,2.85c-8.68-38.48-13.68-77.72-14.84-117.15-.32-10.74-.35-21.49-.11-32.24l-2.85,3.75c58.47-9.83,117.55-15.92,176.8-18.22,16.55-.64,33.12-.99,49.69-1.05l-3.75-2.85c6.67,40.62,8.75,81.98,6.03,123.05-.84,12.61-2.12,25.19-3.87,37.7-.29,2.09,.51,4.15,2.72,4.78,1.82,.52,4.49-.64,4.78-2.72,6.12-43.75,6.95-88.1,2.29-132.04-1.16-10.99-2.66-21.95-4.45-32.86-.27-1.65-2.18-2.86-3.75-2.85-60.67,.22-121.3,4.37-181.43,12.43-15.75,2.11-31.46,4.48-47.12,7.11-1.69,.28-2.82,2.17-2.85,3.75-.89,40.52,2.19,81.09,9.14,121.02,1.78,10.2,3.81,20.34,6.09,30.44,.39,1.71,2.09,2.78,3.75,2.85,56.42,2.48,112.99,1.57,169.3-2.77,15.12-1.17,30.21-2.58,45.29-4.24,2.09-.23,3.89-1.62,3.89-3.89,0-1.92-1.79-4.12-3.89-3.89Z"/>
  </g>
  <path d="M410.99,1760.42c.06-.2-.59-.53,.5-.43,3.41,.42,5.97,1.66,9.36,2.2l.31-.28c1.27,.37,2.57,.75,3.9,1.14l.49,.15c.07,.03,.04,.03,.06,.05,.01,.03,.02,.05,.03,.07,0,.05,0,.09-.02,.13,0,.02,.01,0,.03,.06l.02,.08,.02,.08,.09,.48,.7,3.86c.48,2.57,.96,5.13,1.43,7.7,.1-.15,.2-.24,.33,.27,.45,2.12,.82,5.1,1.3,8.18,.1,.45,.19,.9,.28,1.34,.13,.34,.26,.41,.34,.45,.2,1.39,.38,2.62,.55,3.78,1.7,7.46,2.9,15.08,4.24,22.87,1.29,7.8,2.49,15.82,3.55,24.19,.59,3.53,1.18,7.06,1.54,10.49,.48,5.08,.6,11.58,.78,16.55,1.19-.82,2.2,11.29,3.32,8.83,.08,3.32,.15,8.31,.48,8.57,1.02,.75,2.28,3.29,2.92,12.16,.16,3.47-.32,8.8-.12,10.02,.31,1.93,.75-4.49,1.06-2.56,.56-25.83-.96-50.71-3.48-76.58-.76-4.37-2.46-21.43-5.66-39.09-1.61-9.48-3.25-19.16-4.66-27.5l-.23-1.34-.11-.66c-.04-.09,0-.26-.1-.29l-.32-.08c-.86-.22-1.72-.43-2.56-.64-1.47-.36-2.9-.72-4.29-1.06-1.76-.41-3.42-.79-4.95-1.14-3.08-.65-5.66-1.2-7.55-1.6l-1.39-.24c-8.3-1.62-18.52-2.82-25.67-2.94-3.29,0-6.63,.12-9.94,.29,1.52,.27,2.93,.55,4.15,.82-3.35-.25-6.7-.4-7.99-.23-7.15,.32-3.11,1.02-.41,1.91,1.94,.43-.72,.87,2.33,1.36-2.2-.09-3.3-.13-5.52-.22-.26,.3,6.8,.04,5.25,.55-2.11-.22-4.5-.08-6.7-.13,.76,.44,7.62,.39,7.26,.84-1.18,.04-6.16-.83-6.6-.25-.09,.11,2.11,.17,3.21,.22-6.78-.01-10.48,.58-4.34,1.23-2.13-.05-5.15-.29-7.41-.18h.02c1.12,.04,3.08,.1,4.11,.13h-3.84c.22,.06,.44,.14,.67,.22,.96,.06,1.92,.11,2.91,.12h-2.55c.64,.17,1.37,.34,2.17,.51,3.02,.36,5.9,.95,7.52,1.02,13.14,.63,26.27,2.19,39.17,4.56Z"/>
  <path class="uuid-09fc65ec-96e3-4a41-bbda-a37e50281ee9" d="M378.27,1954.74c-25.96,1.13-51.91,2.25-77.87,3.38,4-16.5,8-33,12-49.49,13.57-1.63,27.14-3.26,40.72-4.89,8.38,17,16.77,34,25.15,51Z"/>
  <g>
    <path class="uuid-849d007b-a7bd-4e67-a03f-142968757e1d" d="M432.73,1919.14c-2.05,1.82-1.57,6.83,.98,8.26,3.08,1.73,8.41-2.19,8.17-4.9-.25-2.82-6.6-5.63-9.16-3.36Z"/>
    <path d="M428.18,1929.35c.17-.12,.22-.41,.48-.22,.71,.63,.77,1.73,1.73,2.17l.26-.23c.21,.2,.41,.45,.65,.66,.38,.27,.78,.59,1.23,.83,1.45,.49,3.07,.54,4.6,.11-.05-.12-.07-.23,.07-.3,.6-.21,1.49-.29,2.36-.65,.12-.07,.24-.15,.36-.22,.07-.11,.05-.23,.04-.3,.39-.14,.71-.31,1.03-.44,1.75-1.47,3.07-3.25,3.58-5.09,.28-.91,.32-1.85,.21-2.76l-.15-.69c-.1-.33-.22-.65-.35-.96-.29-.54-.63-1.04-1-1.35-.74-.53-1.45-.73-2.01-1.01-.78-.46-1.63-1.18-2.42-1.54-.17,.57-.77,.83-1.27,1.13-.52,.31-.92,.69-.91,1.31-.39-.13-.99-.24-1.04,.11-.08,.5-.2,1.05-.34,1.53-.08,.23-.11,.5-.15,.71-.01,.11-.05,.2-.03,.3l.03,.14c-.02-.08-.04-.2-.08-.3-.06-.18-.09-.28-.14-.44-.04-.12-.13-.29-.19-.37-.03-.1-.12-.2-.16-.23l.99,1.12h0s0,0,0,0h0s0,.01,0,.01v.02s.01,.03,.01,.03l.03,.06s.06,.06,.11,.08h.04s0,.01,0,.01h0s0,0,0,0l-1.19-1.34h0s0,0,0,0h0s.02,.02,.02,.02l.04,.05c.05,.07,.08,.13,.05,.07,0,.04,.17,.27,.24,.48,.03,.15,.2,.54,.23,.83,.02,.27,.13,.71,.12,1.06-.03,.03,.03,.03,.06,.04,.15,.02,.54,.08,.9,.2,.36,.11,.74,.31,.84,.37,.02,0,0,0,.01,0,.17-.17,.35-.32,.55-.47,.3-.3,.71-.56,1.06-.76,.22-.2,.76-.32,.87-.39,.1-.03,.22-.05,.35-.05h0c.71-.06-6.19,.55-3.27,.29h0s0,0,0,0h0s0,0,0,0h0s0,0,0,0c.22-.02,.35,.17,.21,.39-.12,.21-.51,.38-.71,.23-.08-.07-.12-.14-.12-.21h-.03c-.03-.19-.13-.24-.57-.48-.26-.11-.58-.32-.84-.61-.2,.02-.4,.06-.59,.11,.05-.24,.14-.45-.02-.63-.23-.74-.83-.86-1.68-.84-.4,.11-.76-.49-1.26-.18,.14-.33,.18-.51,.37-.82-.32-.21-.24,1.11-.67,.65,.23-.29,.19-.77,.4-1.1-.49-.14-.7,1.17-1.07,.95-.03-.29,.95-.8,.53-1.15-.08-.07-.31,.29-.39,.49,.35-1.25,.59-2.27-.74-1.49,.27-.42,.85-.8,1.31-1.32h0c-.25,.22-.71,.52-.85,.71,.19-.24,.44-.48,.72-.74-.1-.02-.2-.02-.31-.03-.24,.15-.48,.31-.64,.51,.13-.16,.32-.35,.49-.51-.25,0-.53,.04-.82,.11-.75,.37-1.6,.8-1.81,1.22-1.79,3.23-1.64,7.87,.62,11.12Z"/>
  </g>
  <g>
    <path class="uuid-849d007b-a7bd-4e67-a03f-142968757e1d" d="M416,1924.23c-1.03,.91-.79,3.41,.49,4.13,1.54,.86,4.21-1.09,4.09-2.45-.12-1.41-3.3-2.81-4.58-1.68Z"/>
    <path d="M411.37,1930.59c.18-.11,.27-.35,.48-.2,.57,.49,.52,1.53,1.51,2.01l.26-.23c.52,.56,1.29,1.12,2.05,1.46,1.54,.32,2.78,.06,3.67-.3-.06-.11-.1-.22-.01-.29,.35-.19,.88-.24,1.34-.43l.17-.15c.02-.09-.02-.2-.05-.27,.14-.06,.33-.13,.54-.21,.81-.89,1.38-1.82,1.81-3.11,.2-.63,.4-1.43,.33-2.44-.04-.55-.19-1.07-.43-1.54-.23-.4-.52-.75-.79-.95-.59-.31-1.11-.33-1.48-.46-.49-.23-.93-.72-1.38-.94-.45,1.09-1.48,1.39-1.56,2.63-.16-.07-.4-.14-.42,.21-.02,.25-.05,.52-.08,.78-.01,.21-.03,.42-.04,.62,.01-.2,0-.6-.11-.99-.06-.18-.08-.28-.16-.4-.02-.05-.06-.1-.08-.12l1.92,2.16h0s0,0,0,0h0s0,.01,0,.01v.02s.02,.03,.02,.03l.04,.05s.06,.06,.1,.09l.03,.02h0s0,0,0,0l-2.11-2.38h0s0,0,0,0h0s0,.01,0,.01l.02,.02s.04,.06,.03,.04c.16,.17,.36,1,.29,1.76-.05,.77-.27,1.34-.27,1.34l.05-.1c.05-.1,.1-.19,.17-.29,.17-.28,.39-.61,.72-.96,.31-.35,.69-.67,1.04-.87,.11-.1,.38-.16,.43-.19,.05-.02,.11-.03,.17-.03-.06,.01-.13,.01-.19,0-.12,0-.84-.15-1.68-.78-.83-.6-1.18-1.28-.86-.74,.32,.47,.61,1.85,.47,2.26-.21,.55,.1-.11,.41-.25l.1-.07c.31-.2,.72-.37,.93-.42,.25-.06,.22-.03,.08-.03-.13,0-.38-.02-.68-.08l.18,.03c-.1-.02-.19-.02-.29-.03,.01-.02,.03-.02,.01-.03-.04-.01-.11-.03-.25-.07-.37-.1-.91-.52-1.73-.61-.38,0-.83-.36-1.26-.21,.08-.19,.11-.28,.22-.47-.33-.15-.06,.65-.54,.35,.18-.16,.07-.46,.21-.68-.48-.13-.49,.73-.89,.57-.07-.2,.81-.47,.34-.76-.09-.07-.25,.2-.3,.33,.12-.82,.3-1.87-.92-1.17,.22-.37,.78-.72,1.1-1.11h0c-.19,.14-.59,.39-.71,.56,.16-.21,.39-.42,.59-.61-.09-.03-.18-.05-.27-.06-.2,.11-.42,.25-.56,.43,.12-.15,.27-.3,.42-.44-.24-.02-.5,0-.76,.06-.75,.36-1.54,.78-1.69,1.14-.66,1.36-.84,2.56-.82,3.75,.05,1.18,.31,2.4,1.12,3.73Z"/>
  </g>
  <g>
    <path class="uuid-849d007b-a7bd-4e67-a03f-142968757e1d" d="M398.56,1926.75c-1.03,.91-.79,3.41,.49,4.13,1.54,.86,4.21-1.09,4.09-2.45-.12-1.41-3.3-2.81-4.58-1.68Z"/>
    <path d="M393.92,1933.11c.18-.11,.27-.35,.48-.2,.57,.49,.52,1.53,1.51,2.01l.26-.23c.52,.56,1.29,1.12,2.05,1.46,1.54,.32,2.78,.06,3.67-.3-.06-.11-.1-.22-.01-.29,.35-.19,.88-.24,1.34-.43l.17-.15c.02-.09-.02-.2-.05-.27,.14-.06,.33-.13,.54-.21,.81-.89,1.38-1.82,1.81-3.11,.2-.63,.4-1.43,.33-2.44-.04-.55-.19-1.07-.43-1.54-.23-.4-.52-.75-.79-.95-.59-.31-1.11-.33-1.48-.46-.49-.23-.93-.72-1.38-.94-.45,1.09-1.48,1.39-1.56,2.63-.16-.07-.4-.14-.42,.21-.02,.25-.05,.52-.08,.78-.01,.21-.03,.42-.04,.62,.01-.2,0-.6-.11-.99-.06-.18-.08-.28-.16-.4-.02-.05-.06-.1-.08-.12l1.92,2.16h0s0,0,0,0h0s0,.01,0,.01v.02s.02,.03,.02,.03l.04,.05s.06,.06,.1,.09l.03,.02h0s0,0,0,0l-2.11-2.38h0s0,0,0,0h0s0,.01,0,.01l.02,.02s.04,.06,.03,.04c.16,.17,.36,1,.29,1.76-.05,.77-.27,1.34-.27,1.34l.05-.1c.05-.1,.1-.19,.17-.29,.17-.28,.39-.61,.72-.96,.31-.35,.69-.67,1.04-.87,.11-.1,.38-.16,.43-.19,.05-.02,.11-.03,.17-.03-.06,.01-.13,.01-.19,0-.12,0-.84-.15-1.68-.78-.83-.6-1.18-1.28-.86-.74,.32,.47,.61,1.85,.47,2.26-.21,.55,.1-.11,.41-.25l.1-.07c.31-.2,.72-.37,.93-.42,.25-.06,.22-.03,.08-.03-.13,0-.38-.02-.68-.08l.18,.03c-.1-.02-.19-.02-.29-.03,.01-.02,.03-.02,.01-.03-.04-.01-.11-.03-.25-.07-.37-.1-.91-.52-1.73-.61-.38,0-.83-.36-1.26-.21,.08-.19,.11-.28,.22-.47-.33-.15-.06,.65-.54,.35,.18-.16,.07-.46,.21-.68-.48-.13-.49,.73-.89,.57-.07-.2,.81-.47,.34-.76-.09-.07-.25,.2-.3,.33,.12-.82,.3-1.87-.92-1.17,.22-.37,.78-.72,1.1-1.11h0c-.19,.14-.59,.39-.71,.56,.16-.21,.39-.42,.59-.61-.09-.03-.18-.05-.27-.06-.2,.11-.42,.25-.56,.43,.12-.15,.27-.3,.42-.44-.24-.02-.5,0-.76,.06-.75,.36-1.54,.78-1.69,1.14-.66,1.36-.84,2.56-.82,3.75,.05,1.18,.31,2.4,1.12,3.73Z"/>
  </g>
  <path class="uuid-09fc65ec-96e3-4a41-bbda-a37e50281ee9" d="M371.03,1695.33c5.22,10.9,10.43,21.8,15.65,32.7-.89,9.9-1.78,19.8-2.67,29.7h-103.62c1.41-9.2,2.82-18.4,4.23-27.59-4.4-11.43-8.8-22.85-13.19-34.28,33.2-.18,66.41-.35,99.61-.53Z"/>
  <path d="M367.81,1697.11c5.22,10.9,10.43,21.8,15.65,32.7l-.53-1.96c-.89,9.9-1.78,19.8-2.67,29.7l3.89-3.89h-103.62c1.25,1.64,2.5,3.28,3.75,4.92,.84-5.45,1.67-10.9,2.51-16.35,.42-2.73,.84-5.45,1.25-8.18,.2-1.32,.61-2.76,.61-4.1,0-1.45-.91-3.05-1.42-4.37-3.97-10.32-7.94-20.63-11.91-30.95-1.25,1.64-2.5,3.28-3.75,4.92,33.2-.18,66.41-.35,99.61-.53,5-.03,5.01-7.8,0-7.78-33.2,.18-66.41,.35-99.61,.53-2.32,.01-4.68,2.51-3.75,4.92,4.4,11.43,8.8,22.85,13.19,34.28v-2.07c-1.41,9.2-2.82,18.4-4.23,27.59-.38,2.45,.99,4.92,3.75,4.92h103.62c2.24,0,3.7-1.79,3.89-3.89,.51-5.63,1.01-11.27,1.52-16.9,.25-2.73,.49-5.46,.74-8.19,.12-1.35,.35-2.74,.37-4.1,.03-1.65-.67-2.87-1.38-4.34-4.92-10.28-9.84-20.56-14.75-30.83-2.16-4.51-8.87-.57-6.71,3.92Z"/>
  <path d="M378.27,1950.85c-25.96,1.13-51.91,2.25-77.87,3.38,1.25,1.64,2.5,3.28,3.75,4.92,4-16.5,8-33,12-49.49-1.25,.95-2.5,1.9-3.75,2.85,13.57-1.63,27.14-3.26,40.72-4.89l-3.36-1.93c8.38,17,16.77,34,25.15,51,2.21,4.49,8.92,.55,6.71-3.92-8.38-17-16.77-34-25.15-51-.54-1.1-2.11-2.07-3.36-1.93-13.57,1.63-27.14,3.26-40.72,4.89-1.68,.2-3.31,1.06-3.75,2.85-4,16.5-8,33-12,49.49-.57,2.35,1.15,5.03,3.75,4.92,25.96-1.13,51.91-2.25,77.87-3.38,4.98-.22,5.01-7.99,0-7.78Z"/>
  <rect class="uuid-e7d6bc28-bbf1-4ba0-bff7-40c1e72b3cf1" x="261.68" y="1827.44" width="27.91" height="54.39" rx="13.96" ry="13.96"/>
  <rect class="uuid-e7d6bc28-bbf1-4ba0-bff7-40c1e72b3cf1" x="374.17" y="1825.81" width="27.91" height="54.39" rx="13.96" ry="13.96"/>
</svg>